<?xml version="1.0" standalone="no"?>
<!DOCTYPE svg PUBLIC "-//W3C//DTD SVG 20010904//EN"
 "http://www.w3.org/TR/2001/REC-SVG-20010904/DTD/svg10.dtd">
<svg version="1.0" xmlns="http://www.w3.org/2000/svg"
 width="629.000000pt" height="1280.000000pt" viewBox="0 0 629.000000 1280.000000"
 preserveAspectRatio="xMidYMid meet">
<metadata>
Created by potrace 1.15, written by Peter Selinger 2001-2017
</metadata>
<g transform="translate(0.000000,1280.000000) scale(0.100000,-0.100000)"
fill="#000000" stroke="none">
<path d="M0 12133 c1 -508 3 -664 12 -655 14 14 28 16 28 3 0 -5 -9 -13 -20
-16 -20 -6 -20 -15 -20 -460 0 -400 2 -454 15 -449 8 4 15 1 15 -5 0 -6 -7
-11 -15 -11 -26 0 -18 -49 10 -62 14 -6 25 -15 25 -20 0 -11 -17 -10 -25 2 -3
6 -10 10 -16 10 -6 0 -9 -411 -9 -1095 l0 -1095 23 0 c17 0 19 -2 7 -10 -12
-7 -11 -12 5 -31 l20 -22 -27 7 c-28 6 -28 6 -28 -45 0 -43 3 -50 18 -47 9 2
16 10 14 17 -1 7 2 10 8 6 5 -3 10 -12 10 -20 0 -8 4 -17 10 -20 6 -3 7 1 4 9
-5 12 0 16 17 16 39 0 96 -19 121 -40 22 -18 22 -19 3 -20 -17 -1 -16 -3 6
-13 62 -28 121 -123 134 -220 4 -26 11 -50 16 -53 5 -3 9 -13 9 -22 0 -11 -15
0 -41 31 -23 26 -64 59 -91 73 -28 14 -64 40 -81 57 -19 20 -49 36 -76 43 -26
6 -54 15 -63 19 -16 6 -18 1 -18 -45 0 -29 4 -49 9 -45 6 3 32 -8 58 -23 26
-16 67 -32 91 -36 62 -9 131 -53 118 -75 -5 -7 -1 -8 10 -4 12 4 15 3 10 -5
-4 -7 -2 -12 4 -12 15 0 49 -41 50 -58 0 -7 7 -24 16 -37 9 -14 12 -25 6 -25
-6 0 -14 5 -17 10 -10 17 -65 41 -76 34 -7 -4 -1 -15 15 -28 14 -11 51 -72 81
-134 54 -109 59 -115 106 -137 l49 -22 -31 -7 c-58 -11 -118 -6 -174 15 -43
16 -76 41 -149 112 -52 51 -112 102 -135 115 l-41 23 0 -130 c0 -134 6 -156
38 -128 9 8 31 21 49 30 45 21 79 13 293 -68 70 -27 112 -37 158 -38 l63 -1
-28 -22 c-15 -12 -39 -31 -52 -43 -28 -24 -103 -49 -176 -57 -56 -7 -148 19
-222 63 -46 27 -57 19 -21 -14 31 -28 78 -51 140 -67 43 -12 47 -15 23 -15
-37 -1 -222 37 -247 50 -14 7 -18 6 -18 -6 0 -23 61 -45 161 -57 120 -15 265
2 327 38 49 29 54 28 45 -4 -6 -25 -50 -52 -85 -52 -13 0 -30 -4 -38 -10 -28
-17 -4 -19 51 -4 29 9 86 25 124 36 39 12 97 29 129 39 33 11 66 19 75 19 9 0
40 9 69 19 28 11 52 18 52 15 0 -2 11 1 24 5 13 5 52 12 87 16 89 8 131 16
154 28 11 6 29 12 41 13 52 6 105 27 174 71 l75 47 200 1 c188 0 203 1 242 23
23 12 58 22 78 22 30 0 35 -3 35 -23 0 -13 -3 -27 -6 -30 -8 -8 -7 -85 2 -182
3 -38 7 -95 8 -125 2 -30 6 -72 10 -92 5 -21 5 -46 1 -55 -4 -10 -8 -45 -10
-78 -2 -33 -8 -89 -15 -125 -6 -36 -11 -72 -11 -80 0 -8 -5 -49 -10 -90 -18
-153 -21 -176 -21 -200 0 -14 -4 -30 -9 -36 -4 -6 -11 -35 -14 -65 -3 -30 -15
-94 -25 -144 -10 -49 -22 -124 -25 -165 -4 -41 -11 -95 -17 -120 -5 -25 -12
-72 -15 -105 -3 -33 -9 -65 -14 -71 -5 -6 -5 -14 1 -20 6 -6 6 -22 1 -40 -10
-34 -8 -611 2 -621 4 -3 7 11 7 33 4 306 33 655 79 949 5 33 12 83 16 110 3
28 15 91 25 140 10 50 28 151 39 225 23 146 69 345 93 400 9 19 18 43 22 53 9
27 23 20 36 -18 9 -27 17 -35 35 -35 13 0 27 -4 30 -10 9 -15 65 -12 65 3 0
17 46 37 58 25 6 -6 15 -9 20 -7 6 2 -7 40 -29 84 -21 44 -44 105 -50 135 -6
30 -23 91 -39 135 -15 44 -30 101 -34 127 -4 25 -14 52 -21 58 -8 7 -15 18
-15 24 0 7 -21 43 -47 82 -72 107 -145 239 -201 366 -29 64 -52 121 -52 127 0
6 -6 25 -14 43 -8 18 -30 74 -47 123 -33 90 -70 167 -95 195 -29 34 -74 170
-83 251 -17 157 0 445 35 579 8 30 14 71 14 92 0 54 14 47 34 -16 10 -30 28
-67 41 -82 13 -15 21 -33 18 -40 -10 -27 133 -51 201 -33 94 26 150 67 161
119 3 16 13 34 21 41 20 17 17 39 -5 39 -11 0 -27 3 -37 7 -11 4 -15 2 -11 -4
4 -7 -7 -8 -34 -3 -65 12 -66 23 -2 45 21 8 39 9 41 4 4 -11 92 -12 93 -1 4
44 10 66 19 72 19 12 34 81 33 150 -1 84 -37 170 -82 196 -17 10 -31 22 -31
26 0 4 -6 8 -13 8 -7 0 -23 7 -35 16 -21 15 -22 17 -6 28 13 10 14 17 5 34 -6
12 -16 22 -21 22 -6 0 -10 6 -10 13 0 19 -43 57 -63 57 -9 0 -17 5 -17 10 0 6
-12 10 -26 10 -14 0 -35 5 -47 12 -12 7 -37 13 -56 15 -19 1 -46 7 -60 12 -14
5 -66 12 -114 14 -49 2 -92 8 -97 13 -4 5 -1 38 7 74 8 38 16 136 18 235 2 94
4 170 5 170 1 0 3 23 5 50 9 118 15 165 29 255 22 131 44 227 66 280 17 41 31
77 35 90 7 23 30 60 37 60 4 0 8 6 8 13 0 8 9 22 19 31 11 10 23 31 26 48 4
18 16 33 31 38 14 6 22 15 18 23 -3 8 2 20 11 27 8 7 15 16 15 21 0 15 39 49
58 50 11 1 9 4 -8 9 -17 5 -19 8 -7 9 9 1 17 6 17 11 0 6 11 10 25 10 18 0 31
9 43 30 16 28 32 35 77 32 13 -1 16 1 8 6 -8 5 -9 13 -3 22 7 10 10 11 10 3 0
-7 9 -13 20 -13 17 0 19 4 14 28 l-7 27 22 -19 21 -19 -6 34 c-3 19 -7 40 -9
46 -3 10 0 10 16 0 16 -10 21 -9 28 2 5 8 16 11 29 7 13 -4 22 -1 26 9 3 9 18
15 38 15 25 0 29 3 18 10 -8 5 -24 10 -36 10 -17 0 -21 7 -22 43 -1 25 2 37 6
29 11 -17 42 -4 35 14 -3 8 0 14 6 14 6 0 11 -4 11 -10 0 -5 7 -10 16 -10 10
0 6 -8 -13 -24 -37 -32 -24 -43 26 -20 42 20 55 44 24 44 -12 0 -9 5 11 15 37
20 37 19 30 -10 -7 -30 19 -36 35 -7 9 15 10 15 11 -5 0 -14 6 -23 15 -23 8 0
15 7 15 15 0 8 5 15 11 15 6 0 8 8 4 19 -8 27 28 45 82 42 31 -2 44 2 52 16 6
10 11 12 11 6 0 -7 5 -13 11 -13 5 0 8 4 4 9 -3 5 -1 12 5 16 5 3 10 17 10 30
0 13 4 26 9 29 4 3 6 -6 3 -19 -6 -33 24 -34 39 -2 7 17 8 13 4 -20 -6 -46 3
-55 23 -23 7 11 23 20 37 20 27 0 32 -9 14 -27 -8 -8 -5 -13 10 -18 13 -4 19
-11 15 -18 -4 -7 -4 -9 1 -5 4 4 15 2 23 -5 13 -10 14 -9 8 10 -9 27 9 40 23
16 9 -16 11 -15 20 10 6 15 13 27 16 27 4 0 3 -4 0 -10 -3 -5 4 -10 15 -10 16
0 20 4 16 16 -5 12 -2 15 10 10 9 -4 23 -1 30 5 11 9 14 7 14 -10 0 -11 -6
-21 -12 -21 -7 0 -24 -10 -38 -21 l-25 -20 35 5 c79 11 170 18 170 12 0 -4
-10 -11 -22 -16 -17 -7 2 -9 66 -8 94 3 123 -11 66 -30 -16 -6 -30 -13 -30
-15 0 -3 25 -4 55 -3 41 1 52 -2 41 -9 -11 -9 -8 -14 17 -28 16 -10 33 -14 36
-9 12 17 39 20 60 6 12 -9 19 -20 16 -25 -6 -8 -1 -10 38 -13 6 -1 17 -10 22
-21 7 -13 21 -20 40 -20 17 0 41 -7 55 -14 14 -8 35 -14 48 -12 23 3 24 3 4
-17 -11 -11 -26 -22 -33 -25 -10 -4 -9 -6 4 -6 9 -1 18 -8 18 -16 1 -8 2 -21
3 -27 0 -7 11 -14 24 -16 23 -4 29 -16 12 -27 -5 -3 -10 -12 -10 -18 0 -8 3
-7 9 2 7 11 12 10 27 -8 10 -11 26 -21 35 -21 21 0 43 -26 34 -40 -3 -5 0 -10
9 -10 8 0 16 6 19 13 2 6 8 8 13 4 5 -4 3 -12 -4 -16 -7 -4 -10 -16 -6 -27 3
-10 8 -26 11 -34 4 -13 6 -12 14 3 12 21 29 22 29 2 0 -8 -4 -15 -10 -15 -5 0
-10 -13 -10 -30 0 -16 3 -30 8 -30 12 0 29 14 35 30 3 8 6 1 6 -15 1 -17 -6
-40 -14 -52 -14 -20 -13 -21 8 -16 15 3 18 2 9 -4 -21 -16 7 -84 45 -108 18
-11 32 -26 33 -32 0 -7 4 -13 9 -13 15 0 22 -32 10 -47 -10 -11 -8 -15 9 -20
12 -3 22 -9 22 -14 0 -5 -7 -6 -15 -3 -10 4 -15 0 -15 -11 0 -11 6 -15 18 -11
9 3 24 1 32 -4 13 -9 13 -11 0 -20 -12 -8 -12 -10 5 -10 14 0 16 -3 7 -8 -7
-5 -10 -16 -6 -26 3 -9 3 -16 -2 -15 -24 4 -23 -3 3 -24 15 -13 36 -26 46 -30
27 -10 21 -30 -8 -25 -13 3 -22 1 -19 -4 8 -13 62 -39 75 -36 6 2 12 -7 14
-19 1 -12 -2 -20 -7 -17 -4 3 -8 -2 -8 -11 0 -9 5 -13 10 -10 15 9 40 -13 34
-30 -3 -7 -1 -16 5 -20 10 -5 15 7 12 28 -2 11 17 9 24 -3 3 -5 1 -10 -4 -10
-26 0 -7 -28 29 -44 22 -10 38 -22 34 -27 -3 -6 1 -21 10 -34 20 -30 20 -35 1
-35 -14 0 -19 12 -16 33 0 4 -6 7 -14 7 -8 0 -15 5 -15 10 0 6 -5 10 -10 10
-6 0 -3 -12 7 -27 25 -42 65 -83 74 -77 4 2 15 -10 24 -28 8 -19 38 -48 67
-67 38 -25 47 -35 37 -42 -11 -7 -9 -9 7 -9 11 0 29 -9 39 -20 10 -11 24 -20
32 -20 7 0 13 -7 13 -15 0 -8 9 -15 19 -15 10 0 22 -7 25 -16 3 -8 11 -12 17
-8 8 4 9 3 5 -4 -9 -14 15 -52 32 -52 7 0 11 -4 8 -8 -3 -5 5 -20 17 -33 12
-13 21 -27 20 -31 -2 -5 1 -8 5 -8 5 0 14 -16 22 -35 8 -19 17 -35 22 -35 4 0
8 -18 8 -40 0 -30 -4 -40 -16 -40 -8 0 -13 -3 -11 -7 3 -5 1 -37 -4 -72 -5
-36 -6 -67 -1 -70 8 -7 10 -23 15 -156 3 -94 17 -142 41 -151 12 -5 13 -9 3
-19 -7 -7 -15 -11 -19 -8 -5 2 -8 -7 -8 -21 0 -14 4 -26 9 -26 13 0 20 -37 9
-48 -6 -6 -7 -19 -3 -29 14 -32 13 -43 -3 -43 -12 0 -13 -3 -4 -12 15 -15 16
-58 2 -58 -5 0 -9 -3 -8 -7 1 -5 -2 -18 -6 -31 -6 -18 -11 -21 -21 -12 -23 19
-32 3 -32 -55 0 -62 -6 -73 -27 -56 -10 8 -16 9 -21 1 -3 -5 1 -10 10 -10 10
0 15 -7 13 -17 -2 -10 -11 -17 -20 -15 -9 1 -20 -10 -28 -30 -7 -18 -19 -40
-26 -48 -7 -8 -15 -41 -19 -72 -6 -49 -5 -58 9 -58 10 0 13 -6 10 -15 -4 -8
-13 -15 -20 -15 -8 0 -19 -12 -25 -27 -7 -18 -13 -23 -17 -15 -5 6 -8 -12 -7
-41 0 -45 3 -52 18 -49 11 2 25 -5 32 -14 12 -17 14 -16 39 10 21 23 29 26 40
17 10 -8 16 -9 21 -1 9 15 -3 30 -26 30 -10 0 -19 5 -19 10 0 6 4 10 10 10 5
0 18 9 28 20 19 21 19 21 25 -27 3 -26 2 -49 -3 -51 -4 -2 -6 -13 -3 -25 10
-47 16 -52 23 -17 6 28 7 22 7 -28 0 -44 -4 -61 -13 -58 -8 3 -12 -10 -12 -40
-1 -52 -24 -83 -46 -65 -19 16 -23 5 -21 -48 1 -32 -4 -46 -17 -55 -23 -14
-23 -28 -1 -24 24 4 24 -32 2 -53 -10 -8 -19 -33 -21 -55 -3 -34 -6 -39 -28
-39 -21 0 -25 -4 -22 -25 1 -14 4 -36 5 -49 1 -13 8 -26 15 -29 17 -5 15 -32
-3 -32 -9 0 -20 10 -24 23 -10 25 -13 20 -31 -50 -6 -23 -15 -45 -20 -48 -6
-3 -10 -15 -10 -25 0 -11 -9 -27 -19 -37 -10 -10 -26 -35 -34 -55 -10 -23 -23
-38 -34 -39 -12 -1 -10 -3 7 -8 32 -9 40 -63 14 -92 -13 -15 -15 -22 -6 -31
20 -20 15 -41 -8 -35 -11 3 -18 1 -15 -4 3 -4 -3 -17 -13 -27 -10 -10 -21 -26
-25 -35 -3 -9 -11 -17 -17 -17 -6 0 -8 -10 -4 -26 5 -20 0 -31 -27 -54 -39
-34 -41 -36 -74 -73 -14 -15 -25 -31 -25 -35 0 -4 -13 -16 -29 -27 -16 -10
-27 -23 -25 -27 3 -4 -1 -8 -8 -8 -14 0 -45 -20 -79 -52 -11 -10 -25 -18 -32
-18 -8 0 -20 -11 -27 -25 -7 -14 -19 -25 -27 -25 -7 0 -13 -7 -13 -15 0 -8 -4
-15 -10 -15 -13 0 -77 -42 -121 -80 -42 -36 -145 -89 -172 -90 -11 0 -30 -9
-44 -19 -13 -11 -31 -17 -39 -14 -8 3 -21 0 -29 -7 -13 -11 -20 -11 -40 0 -34
18 -69 -1 -156 -85 -39 -38 -78 -70 -86 -71 -9 -2 -30 -16 -47 -33 -18 -17
-37 -31 -42 -31 -6 0 -23 -14 -39 -30 -16 -17 -33 -30 -38 -30 -16 0 -58 -38
-48 -44 5 -4 12 -2 16 4 3 5 13 10 22 10 16 0 144 58 153 70 3 3 40 23 83 44
56 28 85 36 103 32 34 -9 25 -17 -17 -18 -19 -1 -28 -3 -21 -5 15 -6 16 -69 2
-78 -12 -8 -49 33 -50 55 -1 8 -5 4 -11 -9 -10 -26 3 -51 27 -51 8 0 14 -7 14
-16 0 -14 8 -16 50 -10 64 9 80 15 80 32 0 8 7 14 15 14 8 0 19 9 25 20 6 11
17 20 25 20 8 0 15 5 15 11 0 8 4 8 14 0 16 -13 47 -1 76 31 18 20 160 69 160
55 0 -9 17 -7 54 9 16 6 18 4 14 -14 -4 -12 -2 -22 3 -22 5 0 9 6 9 14 0 13
36 53 74 85 23 17 34 5 18 -19 -7 -11 -12 -28 -12 -38 0 -9 -7 -28 -16 -41
-12 -17 -13 -26 -5 -34 8 -8 11 -8 11 1 0 7 4 12 10 12 13 0 1 -31 -22 -53
-10 -10 -18 -29 -18 -42 0 -14 -4 -25 -9 -25 -5 0 -12 -11 -15 -25 -4 -14 -14
-25 -22 -25 -10 0 -14 -6 -11 -15 4 -8 2 -17 -3 -20 -4 -3 -10 1 -13 7 -5 16
-47 -18 -47 -39 0 -16 12 -17 28 -1 8 8 12 8 12 1 0 -6 8 -14 18 -18 14 -5 15
-4 5 6 -19 19 -16 27 10 31 14 2 23 11 25 25 4 27 33 54 39 35 3 -6 9 -9 15
-6 6 4 9 1 6 -7 -3 -8 -14 -15 -26 -17 -28 -4 -28 -22 -1 -29 17 -5 20 -11 15
-34 -3 -17 -1 -29 7 -32 16 -5 -9 -37 -29 -37 -16 0 -19 -26 -4 -35 6 -4 8
-15 5 -26 -4 -11 -2 -19 5 -19 6 0 18 -7 26 -15 9 -8 11 -15 6 -15 -5 0 -7
-11 -4 -25 5 -28 -12 -34 -23 -7 -6 16 -7 16 -20 -2 -9 -11 -12 -29 -8 -44 3
-15 1 -27 -8 -33 -8 -4 -14 -13 -14 -19 0 -6 -7 -15 -15 -20 -8 -5 -12 -10 -8
-10 5 0 -1 -9 -13 -21 -13 -13 -18 -27 -14 -39 5 -15 3 -18 -9 -14 -12 4 -16
0 -16 -16 0 -12 -5 -30 -11 -42 -14 -27 -1 -38 17 -14 20 28 17 12 -6 -29 -11
-19 -17 -41 -14 -48 3 -8 -6 -28 -20 -45 -15 -16 -26 -38 -26 -48 -1 -28 -28
-84 -29 -60 -1 15 -3 16 -16 6 -9 -7 -13 -20 -10 -28 3 -7 2 -19 -2 -25 -4 -7
-8 -14 -8 -17 -1 -3 -5 -20 -9 -38 -7 -28 -11 -32 -39 -30 -18 1 -40 6 -51 11
-14 7 -17 6 -14 -5 3 -7 22 -14 44 -16 46 -4 72 -22 32 -22 -15 0 -30 -5 -33
-10 -4 -6 8 -10 29 -10 27 0 34 -3 30 -15 -4 -9 0 -15 10 -15 8 0 23 -14 31
-30 l16 -31 -35 -14 c-25 -11 -34 -20 -30 -30 7 -17 43 -11 56 9 5 8 10 8 18
0 9 -9 3 -17 -22 -32 -52 -32 -86 -43 -91 -29 -2 7 -9 2 -16 -12 -7 -13 -9
-26 -4 -30 11 -8 36 -81 29 -88 -3 -3 -13 -2 -23 2 -22 10 -55 7 -68 -6 -7 -7
-4 -8 8 -4 23 9 22 -2 -7 -88 -13 -40 -27 -94 -31 -122 -4 -27 -10 -54 -15
-60 -4 -5 -4 -28 0 -50 7 -37 15 -24 11 18 -3 25 16 21 22 -5 7 -24 -8 -58
-25 -58 -10 0 -5 -88 9 -134 3 -10 1 -16 -4 -13 -5 3 -15 2 -23 -4 -9 -5 -10
-9 -3 -9 6 0 16 -22 23 -49 10 -44 9 -53 -10 -91 -19 -37 -28 -72 -45 -170 -2
-14 -11 -42 -20 -62 -8 -21 -15 -50 -15 -66 0 -16 -11 -50 -25 -77 -13 -27
-22 -51 -20 -55 2 -3 -4 -33 -14 -66 -10 -32 -17 -69 -15 -81 3 -13 0 -23 -4
-23 -9 0 -14 -34 -29 -187 -4 -46 -10 -63 -21 -63 -12 0 -12 -3 -2 -15 7 -9
10 -25 5 -42 -4 -19 -9 -23 -15 -14 -10 17 -33 4 -26 -15 3 -8 1 -14 -4 -14
-6 0 -10 -10 -10 -22 -1 -13 -7 -34 -15 -48 -8 -14 -15 -36 -15 -50 -1 -14 -4
-19 -7 -12 -8 19 -21 14 -25 -10 -2 -18 -10 -23 -33 -23 -23 0 -29 -4 -27 -17
2 -12 -4 -18 -18 -18 -11 0 -20 5 -20 10 0 6 -9 10 -20 10 -11 0 -20 3 -20 6
0 12 28 33 35 26 5 -4 5 -1 1 6 -5 8 -13 9 -26 2 -23 -13 -33 -13 -25 -1 3 5
1 12 -5 16 -9 6 -14 -6 -11 -31 2 -15 -71 -16 -81 -1 -6 9 -12 9 -26 1 -10 -7
-30 -10 -45 -7 -15 3 -27 1 -27 -3 0 -5 -19 -10 -42 -11 -41 -1 -79 -15 -110
-41 -9 -8 -23 -12 -30 -9 -8 4 -7 6 5 6 9 1 17 6 17 11 0 13 -55 11 -103 -3
l-39 -12 104 -24 c56 -13 112 -28 123 -33 11 -5 41 -10 67 -11 27 -1 48 -3 48
-4 0 -1 -10 -11 -22 -23 -23 -21 -44 -27 -32 -9 4 8 -4 9 -27 4 -19 -4 -35
-11 -37 -16 -7 -18 -42 -9 -42 11 0 11 -4 20 -10 20 -5 0 -10 -4 -10 -10 0 -5
-5 -10 -11 -10 -6 0 -8 9 -4 22 6 18 4 20 -11 14 -22 -9 -36 -12 -90 -20 -58
-9 -75 -16 -68 -27 3 -6 12 -8 20 -5 7 3 16 1 19 -4 4 -6 -9 -10 -29 -10 -20
0 -36 5 -36 11 0 7 -4 8 -12 2 -7 -5 -25 -9 -40 -8 -16 0 -28 -2 -28 -5 0 -9
111 -39 153 -42 21 -1 41 -6 43 -10 3 -4 22 -8 42 -8 33 -1 35 -2 20 -14 -24
-18 -23 -25 2 -19 11 3 20 9 20 14 0 11 67 12 74 1 2 -4 -7 -7 -22 -7 -15 1
-33 -4 -41 -9 -11 -9 -4 -12 29 -16 26 -3 45 -11 48 -20 5 -13 3 -13 -11 -1
-11 9 -30 12 -52 8 -19 -3 -37 -2 -40 3 -3 5 -12 7 -20 3 -8 -3 -15 0 -15 5 0
6 -17 9 -42 7 -37 -3 -41 -2 -25 9 9 7 28 11 42 8 15 -2 25 0 25 8 0 7 -8 9
-21 5 -15 -5 -19 -4 -15 4 11 17 -2 13 -33 -10 -23 -17 -32 -19 -50 -10 -11 7
-21 9 -21 5 0 -3 -7 -1 -16 7 -13 10 -17 10 -24 -1 -7 -12 -10 -12 -15 3 -6
13 -11 14 -26 6 -14 -7 -19 -6 -19 4 0 9 -16 17 -42 21 -23 4 -50 14 -59 22
-9 8 -20 11 -23 6 -5 -9 77 -72 95 -72 6 0 8 -4 5 -8 -3 -5 1 -9 9 -9 31 0
125 -27 125 -36 0 -5 -12 -6 -27 -3 -18 4 -23 3 -14 -2 10 -8 8 -13 -10 -26
-26 -18 -43 -21 -34 -6 4 6 -8 10 -29 10 -41 0 -54 14 -29 30 16 10 15 10 -4
5 -12 -3 -31 0 -43 7 -17 11 -22 11 -30 -2 -7 -12 -15 -11 -53 8 -69 35 -68
26 3 -19 36 -23 86 -48 112 -56 27 -7 48 -18 48 -24 0 -6 -6 -7 -13 -2 -6 4
-23 9 -36 11 -37 5 -154 53 -176 73 -11 9 -47 32 -80 50 -33 18 -71 41 -84 51
-24 19 -38 18 -26 -1 3 -6 13 -11 21 -11 17 0 18 -10 2 -47 -6 -15 -10 -35 -9
-45 3 -23 -37 -48 -78 -48 -32 0 -33 -1 -16 -13 10 -8 15 -19 11 -25 -4 -7 -1
-12 8 -12 9 0 16 5 16 10 0 6 5 10 11 10 6 0 9 -9 6 -19 -3 -11 1 -22 8 -25 9
-3 12 2 10 13 -2 12 6 23 20 31 14 7 22 16 20 20 -3 4 0 21 6 38 8 24 15 30
34 27 14 -1 22 2 19 6 -3 5 -13 9 -22 9 -15 1 -15 2 1 11 19 11 57 3 57 -12 0
-5 5 -9 12 -9 6 0 19 -6 27 -14 24 -21 90 -56 106 -56 8 0 15 -4 15 -9 0 -5
10 -12 23 -16 21 -6 21 -7 -6 -17 -25 -9 -28 -14 -22 -37 4 -14 8 -33 9 -41 7
-40 -74 -57 -94 -20 -6 11 -17 20 -26 20 -11 0 -13 7 -8 28 10 47 13 52 32 52
10 0 27 7 38 15 19 14 19 14 -3 15 -12 0 -25 5 -28 10 -9 14 -25 12 -25 -2 0
-7 -16 -26 -36 -42 -29 -23 -43 -27 -70 -23 -40 7 -51 -5 -31 -33 12 -18 15
-18 20 -5 9 22 47 19 47 -4 0 -27 23 -44 40 -28 10 9 11 9 6 -1 -4 -7 -1 -12
8 -12 9 0 16 -4 16 -9 0 -5 -9 -7 -20 -4 -14 4 -20 0 -20 -11 0 -9 -4 -16 -9
-16 -5 0 -12 -11 -15 -24 -4 -16 -13 -24 -28 -25 -13 0 -46 -4 -75 -7 -48 -5
-52 -4 -66 21 l-14 27 -23 -28 c-14 -19 -24 -24 -27 -16 -3 6 -16 12 -30 12
-18 0 -24 -4 -19 -15 3 -8 2 -15 -2 -16 -4 0 -19 -2 -34 -4 -15 -2 -30 1 -33
6 -4 5 -17 6 -31 3 -14 -4 -39 1 -60 11 l-37 17 7 74 c6 65 14 100 33 154 3 8
5 31 4 51 -1 21 2 40 8 43 6 4 9 23 6 42 -2 21 0 32 5 29 6 -4 13 0 16 9 3 8
12 12 20 9 10 -4 12 0 8 11 -4 10 5 25 23 40 15 14 23 26 16 26 -6 0 -15 -5
-18 -10 -10 -17 -44 -11 -57 10 -20 31 -36 24 -43 -17 -4 -21 -8 -49 -11 -63
-2 -14 -11 -79 -19 -145 -53 -449 -73 -565 -93 -565 -8 0 -12 6 -9 14 3 8 2
16 -3 18 -7 3 -11 33 -25 223 -3 33 -7 83 -9 110 -3 28 -7 106 -10 175 -4 69
-10 139 -15 155 -5 17 -12 75 -15 130 -3 55 -7 111 -10 125 -8 37 -23 685 -16
685 1 0 12 231 15 320 1 50 6 131 11 180 4 50 8 116 8 147 0 32 4 58 9 58 4 0
0 13 -9 29 -14 24 -15 34 -5 61 14 41 14 80 1 80 -5 0 -10 -13 -10 -29 0 -17
-5 -33 -11 -37 -6 -3 -9 -19 -7 -35 3 -18 -1 -34 -9 -41 -12 -10 -13 -5 -9 30
3 23 1 44 -4 47 -17 10 -5 48 23 77 31 31 30 53 -1 25 -10 -10 -21 -14 -25
-11 -9 9 4 35 14 28 5 -3 9 10 8 28 -1 52 17 182 28 203 6 11 8 35 6 53 -3 18
0 39 7 47 6 8 9 23 5 34 -3 10 -1 22 5 26 6 4 9 13 6 20 -3 8 2 19 10 26 8 7
14 22 13 33 0 12 0 23 1 26 6 15 7 89 1 97 -10 16 -45 23 -61 13 -19 -12 -7
-22 25 -22 39 0 30 -12 -20 -27 -56 -16 -61 -39 -7 -32 7 1 12 -10 12 -30 0
-27 2 -30 15 -19 12 10 15 10 15 -4 0 -9 -5 -16 -11 -16 -7 0 -17 -7 -23 -15
-8 -10 -15 -12 -26 -5 -13 9 -13 11 0 19 8 6 11 13 8 17 -4 3 -15 -2 -25 -12
-13 -12 -14 -19 -5 -22 6 -2 12 -10 12 -18 0 -8 6 -11 16 -7 14 5 15 3 5 -16
-7 -12 -16 -19 -22 -16 -5 4 -9 -1 -9 -9 0 -10 -6 -13 -15 -10 -9 4 -15 0 -15
-10 0 -9 6 -16 14 -16 20 0 36 -24 27 -39 -5 -8 -19 -14 -32 -15 -29 -1 -36
-28 -13 -51 14 -14 15 -18 4 -25 -8 -5 -14 -29 -16 -56 -1 -27 -7 -50 -13 -52
-14 -5 -14 -45 0 -59 8 -8 8 -17 0 -32 -7 -12 -8 -21 -4 -21 4 0 1 -5 -8 -10
-13 -8 -15 -17 -9 -45 4 -19 5 -37 0 -40 -15 -9 -30 -231 -16 -253 3 -6 2 -13
-4 -17 -6 -4 -7 -12 -3 -18 12 -19 3 -81 -13 -94 -9 -6 -11 -14 -5 -17 5 -3
12 0 14 6 3 7 4 -52 2 -132 -4 -178 -3 -168 -15 -150 -8 12 -10 11 -10 -7 0
-13 6 -23 13 -23 19 0 16 -278 -4 -291 -12 -8 -11 -11 4 -23 13 -10 18 -32 21
-100 3 -55 0 -86 -6 -86 -7 0 -6 -5 1 -14 6 -7 10 -34 8 -60 -3 -26 0 -49 5
-52 5 -3 5 -11 -2 -18 -5 -7 -9 -31 -8 -54 1 -36 4 -40 19 -32 14 8 16 6 12
-10 -3 -11 -9 -20 -14 -20 -5 0 -9 -5 -9 -11 0 -6 7 -8 16 -5 13 5 14 1 9 -22
-3 -15 1 -58 9 -96 9 -42 12 -99 9 -148 -3 -57 0 -86 10 -101 7 -12 13 -35 12
-52 -1 -16 3 -39 8 -50 6 -10 11 -39 12 -63 1 -24 8 -48 15 -52 11 -7 11 -12
2 -22 -6 -8 -9 -23 -7 -34 9 -43 27 -206 34 -307 5 -66 13 -112 20 -116 7 -5
14 -32 16 -62 1 -30 3 -60 4 -66 1 -7 7 -13 15 -13 8 0 17 -13 21 -30 4 -16
11 -32 16 -35 5 -4 9 -15 9 -26 0 -10 4 -19 8 -19 5 0 14 -11 20 -25 12 -25
45 -34 57 -15 16 26 110 2 118 -31 4 -13 14 -19 35 -19 21 0 38 -9 54 -28 12
-15 31 -26 40 -24 9 2 25 -6 35 -17 9 -12 23 -21 31 -21 7 0 15 -7 18 -15 4
-8 18 -15 33 -15 18 0 22 -3 12 -9 -11 -7 -10 -11 5 -20 29 -19 -92 -6 -141
15 -33 13 -52 14 -129 5 -87 -10 -92 -10 -150 16 -34 15 -67 31 -74 37 -8 5
-21 10 -30 11 -52 4 -133 32 -174 60 -26 17 -85 68 -132 113 -47 45 -90 82
-95 82 -24 0 -20 -23 11 -54 19 -19 32 -39 30 -45 -2 -6 1 -11 8 -11 12 0 120
-109 120 -122 0 -4 10 -8 22 -8 12 0 18 -3 14 -7 -3 -4 13 -15 36 -26 24 -11
45 -22 48 -26 25 -30 265 -77 319 -61 34 9 112 7 131 -5 7 -4 41 -8 74 -8 70
1 99 -4 91 -18 -4 -5 0 -10 7 -10 50 -5 80 -19 74 -35 -6 -16 38 -39 55 -28 5
3 9 1 9 -4 0 -5 17 -12 38 -16 21 -3 51 -12 68 -20 16 -8 56 -22 88 -30 33 -9
69 -25 81 -36 12 -11 25 -20 30 -20 19 0 194 -91 219 -115 15 -14 31 -23 36
-20 5 3 4 -8 -2 -25 -7 -23 -14 -28 -21 -21 -13 13 -27 14 -27 3 0 -4 16 -14
35 -21 19 -7 33 -16 31 -20 -4 -6 12 -133 30 -241 4 -19 7 -44 7 -55 1 -11 8
-26 16 -33 14 -12 14 -13 -4 -7 -11 4 -29 10 -39 13 -11 3 -51 21 -90 40 -70
34 -285 86 -312 75 -7 -3 -55 -8 -106 -12 -82 -6 -88 -8 -53 -15 22 -4 49 -12
61 -18 12 -5 50 -8 85 -6 57 3 64 1 67 -17 6 -26 31 -44 62 -45 33 0 96 -61
106 -103 4 -18 9 -35 10 -39 1 -5 2 -15 3 -24 0 -8 5 -13 10 -10 4 3 6 17 4
31 -6 26 16 43 39 31 39 -20 62 -36 52 -36 -6 0 -11 -7 -11 -15 0 -11 10 -15
31 -14 34 2 100 -24 124 -47 10 -11 13 -26 8 -57 l-7 -42 32 33 c17 18 34 30
37 27 4 -3 5 -36 4 -73 -2 -37 4 -93 13 -126 14 -54 14 -61 0 -68 -19 -11 -20
-38 -1 -38 7 0 21 -11 30 -25 20 -30 20 -35 0 -35 -8 0 -13 4 -9 9 14 23 -18
20 -42 -3 -30 -30 -63 -34 -63 -8 -1 14 -3 14 -20 -6 -12 -15 -21 -19 -26 -11
-5 8 -9 7 -16 -2 -5 -8 -11 -10 -14 -4 -4 10 -74 12 -90 2 -5 -3 -30 -8 -56
-12 -27 -4 -48 -11 -48 -16 0 -5 -9 -9 -20 -9 -16 0 -19 -6 -16 -30 2 -17 0
-33 -5 -36 -5 -3 -9 -13 -9 -23 0 -18 -37 -41 -65 -41 -8 0 -15 -4 -15 -10 0
-12 23 -13 34 -3 10 10 96 31 96 23 0 -3 -5 -11 -10 -16 -13 -13 -1 -47 14
-41 6 3 17 -2 24 -9 10 -12 10 -14 -3 -14 -21 0 -19 -17 4 -30 28 -14 36 -12
21 5 -17 20 4 20 24 0 8 -9 21 -14 28 -13 7 2 12 -5 12 -14 -1 -10 2 -18 7
-18 14 0 4 -121 -11 -130 -8 -5 -18 -6 -22 -4 -4 3 -8 0 -8 -7 0 -7 10 -9 24
-7 23 5 25 2 24 -36 0 -23 3 -49 7 -59 4 -10 5 -31 1 -47 -5 -28 -3 -30 23
-30 25 0 28 3 23 22 -3 14 -2 19 6 14 7 -4 12 -14 12 -22 0 -8 7 -14 16 -14 8
0 12 5 9 10 -3 6 3 10 14 10 12 0 21 -4 21 -10 0 -6 66 -10 177 -10 144 0 174
2 160 12 -10 7 -19 23 -22 36 -6 32 -14 42 -33 42 -10 0 -28 7 -40 16 -12 8
-22 11 -22 6 0 -6 -9 -8 -20 -5 -14 4 -20 14 -20 33 0 29 14 39 53 41 21 0 20
1 -3 11 -16 6 -20 12 -12 15 7 3 22 -3 33 -13 10 -9 22 -15 25 -12 5 6 54 -38
54 -47 0 -3 -11 -5 -25 -5 -16 0 -25 -6 -25 -16 0 -11 6 -14 23 -8 35 11 47
24 47 56 0 26 3 30 21 25 15 -4 19 -2 15 8 -3 8 -1 17 4 20 6 4 10 -1 10 -9 0
-9 5 -16 10 -16 6 0 10 -6 10 -14 0 -10 -9 -14 -27 -13 -25 2 -28 -1 -25 -25
2 -14 -2 -29 -7 -33 -6 -3 -11 -10 -11 -15 0 -9 12 -7 58 6 17 5 22 2 22 -11
0 -12 -5 -15 -22 -10 -16 5 -12 0 12 -17 19 -13 34 -32 34 -41 -2 -15 108 -17
1507 -17 l1509 0 0 4279 0 4280 -27 4 -28 4 28 2 c26 1 27 2 27 65 l0 65 -42
4 -43 4 43 1 c31 2 42 6 42 18 0 14 -9 16 -50 12 -27 -3 -47 -1 -44 4 3 4 25
8 50 8 59 0 57 18 -3 23 l-48 3 48 2 47 2 0 105 0 105 -47 0 c-25 0 -43 3 -39
7 4 4 25 6 46 4 l40 -3 0 1901 0 1901 -3145 0 -3145 0 0 -667z m760 -1383 c0
-5 -4 -10 -10 -10 -5 0 -10 -7 -10 -15 0 -8 5 -15 12 -15 14 0 58 -40 58 -52
0 -5 -4 -7 -9 -4 -4 3 -17 -1 -27 -9 -17 -13 -18 -14 -1 -15 9 0 17 -4 17 -10
0 -14 -12 -12 -39 6 -22 16 -23 16 -13 -3 6 -11 8 -29 5 -41 -3 -13 -1 -22 6
-22 6 0 11 7 11 15 0 8 6 15 14 15 8 0 17 7 20 16 3 8 10 12 16 9 6 -4 7 -12
3 -18 -4 -7 -6 -19 -5 -28 2 -9 -4 -22 -12 -28 -14 -11 -14 -15 -1 -28 8 -8
15 -24 15 -36 -1 -22 -1 -22 -15 -3 -13 18 -15 18 -15 3 0 -27 31 -69 47 -63
10 4 12 -2 8 -24 -4 -25 -2 -30 14 -30 14 0 19 -6 18 -20 -1 -11 -5 -20 -10
-20 -4 0 -6 -4 -3 -9 8 -12 -3 -41 -15 -41 -5 0 -8 6 -7 13 2 7 -9 12 -27 13
-49 1 -52 3 -58 30 -3 16 0 28 9 31 19 7 18 23 -1 23 -8 0 -15 5 -15 10 0 6
-7 10 -16 10 -8 0 -13 -4 -10 -8 3 -5 -7 -21 -21 -36 -31 -34 -53 -22 -35 19
11 23 9 31 -9 56 -12 17 -18 33 -15 36 3 4 -1 17 -10 31 -8 13 -13 26 -10 29
3 3 1 14 -4 23 -8 15 -4 20 22 29 24 9 29 14 20 23 -9 9 -15 9 -24 0 -18 -18
-30 -14 -23 8 4 13 1 22 -9 26 -20 8 -21 24 -1 24 8 0 15 8 15 17 0 18 10 12
14 -9 8 -49 46 -62 53 -17 2 13 8 26 13 27 6 2 10 10 10 18 0 8 5 14 10 14 6
0 16 11 22 25 11 25 28 34 28 15z m-294 -282 c-12 -7 -14 -14 -6 -28 15 -28
13 -30 -27 -31 -21 -1 -30 -3 -20 -6 9 -2 17 -11 17 -19 0 -18 -14 -18 -30 1
-7 8 -18 15 -25 15 -7 0 -15 -7 -19 -15 -3 -9 0 -15 9 -15 7 0 17 -9 20 -20 3
-11 15 -20 25 -20 12 0 17 5 14 13 -5 14 41 41 56 32 4 -2 10 -16 12 -30 4
-20 1 -25 -14 -25 -10 0 -35 -7 -56 -16 -50 -20 -160 -21 -198 -1 -16 9 -23
16 -16 17 7 0 10 5 7 10 -5 8 -11 7 -21 -1 -15 -12 -17 -11 -83 44 -26 22 -29
28 -13 23 13 -5 22 -3 22 3 0 6 16 11 36 11 21 0 33 4 29 10 -3 6 -16 8 -28 5
-13 -3 -39 3 -62 15 l-40 21 50 -7 c28 -4 64 -9 80 -10 17 -2 48 -6 70 -9 26
-3 33 -2 21 3 -19 8 -18 9 5 15 13 4 38 7 54 7 17 0 48 6 69 14 43 15 91 10
62 -6z m-295 -242 c13 -13 40 -31 59 -41 19 -10 37 -21 40 -25 9 -12 73 -38
111 -44 35 -6 36 -8 26 -31 -8 -16 -15 -21 -23 -14 -17 14 -29 -8 -14 -26 14
-17 5 -35 -16 -35 -11 0 -14 8 -12 28 3 25 0 27 -35 30 -21 2 -44 -1 -51 -7
-8 -7 -15 -5 -24 9 -9 14 -8 20 1 23 9 3 9 7 -1 19 -9 11 -10 18 -2 23 5 3 10
-1 10 -9 0 -18 15 -21 25 -6 3 5 -8 16 -25 25 -16 8 -30 20 -30 26 0 5 -12 8
-26 7 -16 -2 -29 3 -32 11 -3 8 0 11 7 7 20 -12 12 12 -11 34 -12 11 -17 20
-11 20 6 0 21 -11 34 -24z m662 -326 c17 0 58 -38 47 -45 -6 -3 -8 -11 -4 -16
3 -6 -2 -17 -12 -25 -18 -14 -18 -14 3 -5 31 15 39 -3 13 -31 -22 -23 -22 -39
-1 -46 9 -3 11 2 6 18 -5 16 -4 21 6 18 8 -3 15 -14 17 -26 3 -17 11 -22 35
-23 l32 -1 -35 -9 c-19 -5 -44 -14 -55 -19 -28 -12 -111 -21 -131 -13 -14 5
-14 8 6 23 19 14 21 20 11 38 -6 12 -9 33 -5 47 5 19 2 25 -10 25 -20 0 -21
19 -1 26 14 6 14 8 -1 18 -10 8 -14 23 -12 41 2 21 -3 36 -17 48 -11 10 6 4
40 -13 33 -16 63 -30 68 -30z m1087 -37 c25 -9 39 -18 32 -21 -18 -6 -15 -32
4 -32 10 0 14 -6 11 -14 -6 -15 19 -30 34 -20 5 3 12 -2 15 -10 3 -9 12 -16
19 -16 8 0 22 -11 33 -24 13 -17 25 -23 39 -20 22 6 69 -13 59 -23 -3 -3 -12
0 -21 7 -11 9 -15 9 -15 1 0 -6 13 -14 28 -17 20 -4 32 -15 40 -36 11 -30 6
-59 -7 -41 -21 29 -194 83 -267 83 -127 0 -277 -51 -297 -100 -4 -10 -6 -8 -6
8 -1 12 -5 22 -10 22 -5 0 -19 26 -31 58 -16 42 -20 71 -17 110 5 52 29 94 51
90 6 0 18 2 26 5 47 19 215 13 280 -10z m3668 -75 c2 -4 17 -24 33 -44 19 -24
26 -41 20 -47 -6 -6 -5 -15 5 -24 8 -8 14 -22 14 -31 0 -10 -3 -13 -8 -7 -4 6
-19 16 -34 24 -16 8 -28 18 -28 23 0 5 4 6 10 3 5 -3 7 0 5 7 -6 15 -79 38
-120 38 -32 0 -107 -29 -121 -47 -9 -11 -13 -9 -18 9 -12 46 -7 68 19 78 14 5
27 21 31 36 6 23 10 26 40 21 20 -4 45 0 61 8 26 13 30 13 58 -13 16 -15 31
-30 33 -34z m-3555 -146 c7 -5 24 -12 38 -15 37 -9 78 -48 81 -77 3 -29 8 -28
-125 -10 -71 10 -106 10 -173 0 -46 -6 -86 -11 -89 -11 -10 2 -61 -28 -74 -43
-20 -24 -41 -19 -41 10 0 100 162 183 318 163 29 -4 58 -12 65 -17z m-1139
-63 c-16 -17 -44 -38 -61 -45 -18 -8 -33 -17 -33 -20 0 -3 5 -2 11 2 6 3 15 1
20 -7 6 -11 11 -10 27 4 10 9 25 17 33 17 9 0 24 8 35 19 12 10 41 23 67 28
40 9 46 8 50 -8 3 -10 0 -16 -7 -14 -6 3 -19 -7 -30 -21 -18 -25 -18 -26 0
-16 29 15 41 4 38 -33 -2 -26 1 -32 12 -28 8 3 14 11 14 19 0 8 7 14 16 14 14
0 14 -3 4 -15 -10 -12 -9 -15 5 -15 14 0 15 -3 5 -15 -7 -9 -21 -13 -31 -10
-11 4 -29 3 -41 -1 l-23 -7 25 -9 c18 -7 21 -11 11 -17 -20 -13 5 -24 27 -12
11 6 22 8 25 4 11 -10 -3 -23 -24 -23 -10 0 -19 -4 -19 -10 0 -15 -36 -12 -50
5 -7 8 -17 12 -22 9 -5 -3 1 -13 13 -22 21 -15 21 -16 4 -29 -23 -16 -12 -17
14 -1 15 9 25 9 46 0 23 -11 26 -10 23 6 -2 10 3 17 12 17 8 0 21 4 27 8 9 6
11 3 7 -7 -3 -9 -11 -16 -16 -16 -6 0 -8 -9 -5 -20 5 -19 -4 -24 -49 -23 -6 0
-10 -12 -10 -27 0 -28 13 -31 42 -8 18 13 54 18 54 7 0 -5 -9 -9 -20 -9 -11 0
-23 -7 -26 -15 -7 -18 -89 -49 -105 -40 -8 5 -10 4 -5 -3 20 -32 -104 -24
-132 9 -9 10 -24 19 -34 19 -22 0 -24 18 -3 26 8 4 15 11 15 16 0 6 -6 5 -15
-2 -18 -15 -20 1 -2 19 10 10 8 11 -8 5 -19 -8 -19 -7 -2 19 15 24 16 26 0 20
-12 -5 -14 -3 -8 7 5 8 9 26 10 42 1 22 -1 26 -12 16 -7 -6 -17 -8 -21 -4 -4
4 1 12 12 18 17 9 16 12 -10 30 -22 15 -24 18 -8 14 13 -4 26 -1 34 9 7 9 8
15 2 15 -6 0 -12 -3 -15 -7 -2 -5 -2 -2 0 6 2 8 -2 18 -9 22 -9 6 -8 12 3 25
12 16 12 17 -3 11 -17 -6 -46 18 -34 30 3 3 6 0 6 -7 0 -12 2 -12 13 -1 10 11
10 14 0 18 -37 13 4 29 100 38 21 1 41 6 44 9 4 3 9 4 11 1 3 -3 -8 -19 -24
-36z m4508 15 c32 6 35 4 50 -31 42 -101 66 -290 50 -389 -21 -125 -120 -266
-222 -317 -31 -16 -34 -16 -58 4 -30 23 -38 13 -26 -29 4 -15 6 -31 5 -36 -4
-18 11 -45 30 -51 10 -4 19 -11 19 -16 0 -6 11 -25 24 -42 51 -68 38 -167 -32
-242 -20 -22 -37 -43 -37 -47 0 -4 -9 -14 -20 -22 -15 -11 -23 -12 -33 -3 -8
6 -27 10 -43 9 -22 -2 -32 3 -39 20 -5 13 -9 17 -9 10 -1 -7 -5 -10 -11 -7
-15 10 -13 78 3 72 16 -6 15 89 -1 105 -15 15 -21 -16 -24 -117 l-3 -79 -31
-7 c-28 -5 -32 -3 -32 15 -1 59 -11 173 -16 186 -3 8 0 39 8 69 9 34 11 63 6
77 -9 24 10 43 58 58 32 11 56 50 49 85 -3 16 -1 34 6 41 10 10 6 11 -20 7
-18 -4 -33 -4 -33 -1 0 3 14 19 30 37 17 18 33 40 36 50 3 9 12 17 20 17 8 0
15 5 15 10 1 6 2 15 3 20 0 6 7 15 15 19 8 5 16 31 18 62 4 47 3 51 -11 40
-14 -12 -16 -10 -16 8 0 12 6 21 14 21 9 0 16 12 18 32 2 21 9 34 20 36 23 4
73 -34 88 -66 8 -19 13 -23 20 -13 4 8 17 12 29 8 12 -3 19 -1 15 4 -3 5 0 9
5 9 17 0 13 55 -5 94 -11 23 -34 43 -65 61 -27 14 -49 31 -49 36 0 6 20 35 45
66 25 30 48 65 51 78 3 13 12 26 20 29 8 3 14 13 14 23 0 14 2 15 9 4 6 -9 19
-12 43 -7z m-3543 -145 c31 -9 40 -20 68 -77 17 -37 30 -69 28 -70 -11 -11
-125 -13 -143 -3 -21 11 -52 69 -52 96 0 13 45 65 56 65 4 0 23 -5 43 -11z
m3761 -186 c0 -5 -7 -38 -14 -74 -14 -64 -134 -328 -162 -356 -8 -8 -14 -21
-14 -29 0 -9 -13 -29 -30 -46 -16 -16 -30 -35 -30 -43 0 -17 -49 -26 -72 -12
-24 16 -32 39 -16 52 7 5 21 21 30 35 8 14 49 62 89 106 41 44 81 94 89 110 8
16 26 49 41 74 14 25 35 78 48 118 12 39 26 72 31 72 6 0 10 -3 10 -7z m-4494
-87 c15 -16 19 -36 6 -36 -4 0 -13 5 -18 10 -6 6 -18 8 -26 5 -20 -8 -13 -84
9 -101 11 -10 11 -13 1 -17 -9 -3 -8 -9 6 -20 19 -14 19 -15 -2 -21 -12 -4
-26 -4 -32 -1 -17 11 -11 -3 15 -31 13 -14 24 -29 24 -33 -2 -17 14 -50 23
-45 5 3 4 -4 -4 -16 -9 -15 -20 -20 -40 -17 -16 2 -28 0 -28 -5 0 -4 19 -8 43
-8 28 0 37 -3 28 -9 -16 -10 -6 -31 15 -31 9 0 14 -11 14 -30 0 -23 -5 -30
-19 -30 -10 0 -22 -7 -25 -16 -4 -12 -2 -15 9 -11 22 9 29 -13 9 -28 -14 -10
-15 -14 -5 -15 8 0 20 8 27 17 7 10 15 15 19 12 3 -4 -6 -19 -20 -35 -23 -25
-34 -28 -85 -29 -41 0 -63 5 -77 18 -11 9 -31 17 -46 17 -31 0 -45 16 -20 23
11 3 8 5 -9 6 -16 0 -28 6 -28 12 0 5 -6 7 -12 3 -7 -4 -3 3 10 15 23 23 29
41 13 41 -5 0 -12 -6 -14 -12 -3 -7 -5 -1 -4 15 1 15 5 27 9 27 4 0 8 7 8 16
0 8 -5 12 -10 9 -15 -9 -24 23 -11 39 10 12 8 13 -10 9 -15 -4 -20 -3 -15 5 4
7 2 12 -5 12 -7 0 -5 8 6 20 10 11 19 28 20 38 0 9 5 23 9 30 7 11 4 11 -12 1
-16 -10 -18 -16 -10 -26 12 -15 -9 -18 -31 -4 -11 7 -9 11 8 20 28 16 27 34
-1 26 -21 -6 -21 -6 -6 6 20 16 14 59 -8 59 -21 0 -17 20 4 21 10 0 12 3 5 6
-10 3 -9 9 3 20 12 12 12 18 3 23 -6 4 -9 13 -5 19 5 7 1 9 -8 5 -9 -3 -16 -1
-16 4 0 20 18 22 56 6 44 -19 130 -15 189 9 50 20 53 20 71 3z m21 -577 c8 -8
17 -8 32 0 12 7 21 8 21 2 0 -5 -10 -13 -22 -17 l-21 -6 24 -14 c16 -9 19 -13
8 -14 -8 0 -26 -11 -39 -25 -12 -13 -26 -23 -29 -20 -4 2 -7 -5 -7 -15 0 -15
7 -17 36 -14 25 3 30 2 15 -4 -18 -8 -17 -9 8 -16 32 -8 34 -24 7 -54 -11 -12
-20 -26 -20 -32 0 -5 -7 -10 -16 -10 -8 0 -12 -5 -9 -11 6 -9 -10 -55 -35
-101 -14 -24 -12 -55 2 -64 7 -5 9 -2 5 9 -3 8 0 18 8 21 7 2 22 24 33 48 25
56 45 73 69 58 15 -9 15 -11 1 -6 -9 3 -19 -2 -22 -10 -10 -25 -7 -34 9 -34 8
0 15 -7 15 -16 0 -11 6 -14 23 -10 12 3 17 3 10 0 -7 -3 -9 -13 -6 -21 5 -12
2 -15 -9 -11 -19 8 -49 -11 -30 -19 6 -2 12 -16 12 -29 0 -17 6 -24 20 -24 26
0 25 -15 -2 -34 l-22 -15 25 -10 c15 -6 18 -10 8 -10 -9 -1 -19 -10 -22 -22
-9 -32 -24 -14 -19 22 3 24 1 30 -9 27 -15 -5 -21 -46 -11 -63 4 -5 7 -17 7
-25 0 -10 9 -14 29 -13 25 2 28 -1 23 -23 -3 -16 0 -23 7 -21 6 2 13 14 14 28
2 13 8 29 14 34 8 7 8 6 3 -4 -5 -9 -2 -19 9 -26 14 -11 15 -13 1 -19 -8 -3
-15 -12 -15 -21 0 -14 -22 -45 -67 -91 -51 -52 -157 -79 -206 -52 -38 20 -77
71 -77 101 0 15 2 16 14 5 7 -7 12 -17 10 -23 -2 -5 8 -19 23 -29 26 -19 26
-19 21 0 -3 10 -9 27 -13 37 -5 12 -2 17 9 17 9 0 16 5 16 11 0 5 -5 7 -10 4
-6 -4 -19 -4 -28 0 -16 6 -15 7 2 17 15 8 16 12 5 19 -12 8 -12 11 1 18 12 8
12 12 -3 29 -19 21 -23 37 -5 26 6 -4 8 -3 5 4 -4 5 -17 8 -30 5 -21 -4 -22
-4 -3 11 11 9 24 16 29 16 19 0 -16 30 -37 31 l-21 2 21 4 c13 2 24 14 26 26
4 18 -1 22 -24 24 -16 1 -26 -2 -23 -7 4 -6 -2 -10 -12 -11 -10 0 -13 -3 -5
-6 18 -7 15 -23 -4 -23 -14 0 -16 8 -11 55 5 47 2 59 -20 91 -17 26 -26 55
-29 93 -3 52 -3 54 7 21 6 -19 15 -43 20 -52 5 -10 9 -24 9 -32 0 -8 12 -27
26 -43 18 -19 23 -34 19 -50 -5 -20 -2 -23 21 -23 21 0 24 3 15 14 -9 10 -8
16 4 26 17 14 17 72 0 67 -5 -2 -10 -10 -10 -18 -1 -27 -20 -24 -23 4 -3 22 1
27 17 27 12 0 21 7 21 15 0 8 -7 15 -15 15 -9 0 -15 9 -15 21 0 15 -5 19 -15
15 -20 -7 -19 6 3 35 30 39 33 57 12 64 -12 4 -17 12 -13 21 3 8 -2 23 -12 34
-16 18 -16 19 22 25 21 4 62 18 91 31 29 13 61 24 72 24 10 0 22 5 25 10 8 13
18 13 32 -1z m-717 -419 c0 -5 10 -10 23 -10 27 0 41 -10 50 -34 5 -13 3 -17
-7 -13 -8 3 -22 0 -31 -7 -16 -11 -13 -15 27 -39 41 -24 71 -67 46 -67 -5 0
-7 -4 -3 -9 9 -16 -28 -72 -73 -109 -23 -19 -42 -30 -42 -23 0 6 4 11 8 11 16
0 5 55 -11 58 -10 2 -17 -1 -17 -7 0 -6 -9 -11 -21 -11 -11 0 -18 4 -15 9 6 9
-51 108 -94 162 l-29 37 25 5 c13 2 27 1 29 -4 8 -11 58 -4 63 10 2 7 -9 11
-30 11 -23 0 -29 3 -19 9 9 6 24 5 39 0 28 -11 46 -3 38 17 -4 10 2 14 19 14
14 0 25 -4 25 -10z m4580 -35 c0 -8 6 -12 14 -9 17 7 36 -25 36 -61 0 -55 53
-126 82 -109 5 3 22 0 38 -6 47 -20 56 -109 9 -95 -17 6 -18 4 -8 -19 10 -20
8 -29 -10 -54 -26 -38 -26 -48 0 -63 32 -16 48 4 24 31 -10 11 -15 23 -12 27
8 7 47 -25 47 -39 0 -5 11 -21 24 -35 14 -15 22 -31 19 -36 -3 -6 -1 -7 4 -4
15 9 32 -15 37 -50 1 -17 10 -45 20 -63 9 -18 16 -40 15 -49 0 -9 -7 -1 -15
18 -8 18 -17 31 -20 28 -3 -3 -1 -14 5 -25 6 -12 11 -24 11 -29 -1 -4 -10 10
-22 32 l-21 40 -14 -40 c-31 -93 -68 -133 -153 -166 -109 -42 -262 -6 -358 85
-61 57 -79 85 -64 95 7 4 5 15 -4 31 -14 24 -15 24 -11 3 3 -13 2 -23 -3 -23
-10 0 -23 50 -15 58 3 3 5 0 5 -7 0 -7 4 -10 10 -6 12 7 43 -52 34 -67 -5 -7
-3 -8 6 -3 10 6 12 4 7 -8 -3 -9 -1 -19 5 -23 7 -4 8 -3 4 4 -4 7 -2 12 5 12
7 0 6 8 -5 25 -9 13 -16 30 -16 37 0 6 13 -9 30 -35 74 -117 280 -171 376 -97
22 16 47 37 57 47 25 24 33 63 16 75 -12 7 -11 11 2 20 25 17 6 83 -36 123
-38 35 -44 59 -18 73 22 13 11 63 -21 95 -13 13 -36 48 -51 77 -20 40 -35 56
-65 69 -26 11 -40 24 -43 40 -6 30 2 53 14 45 5 -3 7 -10 3 -15 -6 -11 37 -50
48 -42 16 9 7 36 -17 55 -25 19 -34 48 -15 48 6 0 10 -7 10 -15z m-3806 -390
c21 -14 25 -14 39 0 25 24 28 18 9 -16 -17 -32 -40 -37 -34 -9 3 10 -4 7 -17
-7 -12 -12 -21 -27 -21 -33 0 -5 -5 -10 -11 -10 -5 0 -7 -5 -4 -10 4 -6 16
-10 27 -8 31 4 47 -27 26 -48 -13 -14 -20 -15 -31 -5 -12 9 -16 8 -21 -4 -4
-10 1 -15 15 -15 11 0 22 -7 25 -15 4 -8 10 -15 15 -15 11 0 7 23 -5 31 -5 4
1 10 13 14 15 4 29 1 40 -9 10 -9 23 -16 29 -16 7 0 12 -4 12 -10 0 -6 -9 -6
-26 0 -32 13 -37 12 -29 0 3 -5 0 -10 -7 -10 -8 -1 -6 -6 6 -15 11 -8 17 -17
14 -20 -5 -5 -112 58 -143 83 -6 5 -16 3 -23 -4 -16 -17 -15 -24 3 -24 9 0 39
-17 68 -39 62 -46 86 -59 141 -76 l41 -13 -52 2 c-28 0 -49 4 -46 9 2 4 -3 7
-11 7 -22 0 -28 -16 -12 -30 10 -8 20 -8 33 -1 11 5 25 6 33 1 25 -16 -16 -23
-87 -17 -67 7 -134 40 -147 73 -8 20 0 17 25 -8 l22 -23 -7 25 c-4 14 -8 32
-9 40 -1 8 -8 24 -14 36 -14 23 0 104 20 116 6 4 -7 5 -31 3 -38 -3 -41 -2
-32 15 13 23 13 33 1 25 -5 -3 -12 -1 -16 5 -3 5 -3 11 2 11 4 1 19 3 33 6 14
2 35 5 47 7 13 1 26 6 30 9 11 12 43 8 67 -8z m3367 -241 c3 -27 12 -60 19
-74 15 -27 163 -155 212 -182 17 -9 43 -28 57 -41 36 -34 109 -51 178 -43 31
4 61 10 67 15 6 5 27 12 46 16 19 4 52 18 73 32 21 13 41 21 46 19 9 -6 51 47
51 64 0 5 5 10 10 10 39 0 -68 -134 -123 -152 -15 -6 -26 -12 -24 -15 9 -8 74
25 95 48 12 12 24 20 27 17 3 -2 -6 -15 -20 -28 -23 -22 -23 -24 -7 -36 16
-12 15 -13 -4 -14 -17 0 -24 -9 -33 -45 -9 -35 -16 -45 -31 -45 -12 0 -23 -8
-26 -17 -11 -34 -27 -63 -35 -63 -5 0 -4 12 1 26 13 34 13 34 -10 34 -10 0
-25 -10 -31 -22 l-12 -22 -8 23 c-12 30 -30 23 -45 -20 -12 -33 -13 -33 -13
-7 -1 31 -27 50 -58 42 -12 -3 -24 -1 -27 5 -4 6 -18 11 -31 11 -29 0 -43 -43
-20 -66 23 -24 1 -94 -30 -94 -7 0 -18 -26 -25 -62 -15 -74 -24 -88 -44 -68
-12 13 -11 23 3 69 10 30 23 57 28 58 8 3 8 12 0 32 -12 34 -4 61 22 68 15 4
19 13 17 41 -1 31 -5 37 -32 44 -17 4 -37 15 -44 23 -19 23 -30 18 -30 -14 0
-58 -33 -40 -34 19 -1 30 -53 61 -66 39 -6 -8 -11 0 -15 24 -8 42 -25 50 -25
11 0 -15 -4 -23 -11 -18 -6 3 -8 16 -5 29 4 17 -3 32 -29 59 -19 21 -35 43
-35 51 0 7 -7 15 -15 19 -8 3 -15 17 -15 31 0 18 5 25 20 25 24 0 25 15 5 63
-8 20 -15 44 -14 54 0 10 5 5 12 -14 7 -17 16 -35 21 -40 5 -5 6 0 1 12 -4 11
-10 44 -13 74 -4 43 -2 53 9 49 8 -3 17 -25 20 -54z m-2444 -68 c-3 -7 3 -28
14 -45 19 -31 27 -107 10 -97 -11 7 -28 -32 -36 -81 -12 -71 -16 -84 -25 -78
-10 6 -14 -6 -11 -38 1 -9 -4 -24 -13 -32 -13 -13 -15 -12 -21 14 -3 16 -6 53
-7 82 0 30 -4 61 -8 70 -5 9 -3 50 5 98 8 46 13 87 10 91 -8 13 26 29 59 30
20 0 27 -4 23 -14z m-480 -4638 c-4 -12 -2 -27 2 -32 5 -6 11 -20 13 -31 3
-11 5 -1 5 23 1 24 4 46 7 50 12 12 41 -15 43 -39 0 -13 1 -30 2 -37 1 -7 5
-11 10 -7 5 3 12 1 15 -4 4 -5 2 -12 -4 -16 -17 -11 -12 -45 8 -45 13 0 18
-10 20 -50 2 -41 -1 -51 -18 -60 -16 -9 -25 -8 -36 0 -8 7 -25 9 -40 6 -25 -7
-26 -6 -19 32 6 35 4 40 -16 45 -19 5 -21 10 -15 39 3 18 11 35 16 36 6 2 10
15 10 28 0 14 -4 22 -10 19 -11 -7 -13 24 -4 49 9 24 17 19 11 -6z m1495
-1436 c8 19 48 13 61 -9 5 -7 13 -10 19 -7 7 4 9 -7 7 -33 -3 -28 -1 -39 7
-36 22 8 3 -43 -19 -52 -12 -6 -23 -20 -25 -31 -3 -23 -35 -34 -93 -34 l-29 0
22 34 c13 19 26 32 30 30 10 -6 10 -1 2 20 -3 9 -13 16 -21 16 -9 0 -13 6 -10
15 4 8 2 17 -3 20 -12 8 -1 64 19 95 l16 24 5 -34 c4 -25 7 -30 12 -18z m-121
-355 c21 3 46 2 56 -2 15 -6 12 -9 -16 -18 -19 -7 -35 -20 -37 -29 -2 -15 2
-15 37 -3 23 8 53 12 71 8 29 -6 30 -7 13 -20 -18 -12 -17 -13 8 -13 34 0 34
-7 0 -42 l-27 -28 26 0 c14 0 28 7 32 15 3 8 10 15 16 15 17 0 11 -26 -9 -44
-18 -16 -21 -16 -50 -1 -34 17 -41 35 -14 35 14 0 15 2 4 13 -11 10 -14 10
-18 0 -3 -7 -11 -13 -19 -13 -8 0 -14 -4 -14 -9 0 -4 -11 -6 -25 -4 -13 3 -24
8 -24 12 2 16 -14 50 -27 55 -8 3 -14 12 -14 19 0 8 -9 22 -20 32 -24 22 -27
40 -3 27 9 -5 33 -7 54 -5z m-68 -53 c12 -4 13 -13 5 -46 -11 -49 -6 -56 20
-28 l20 21 6 -25 c4 -17 13 -26 25 -26 11 0 27 -3 35 -6 15 -6 15 -8 -1 -20
-17 -13 -17 -14 3 -20 18 -5 21 -13 20 -54 -1 -43 -4 -50 -26 -55 -21 -6 -32
1 -67 40 -30 32 -43 56 -43 75 0 16 -4 31 -8 34 -8 5 -16 116 -8 116 2 0 11
-3 19 -6z"/>
<path d="M3530 10330 c0 -5 15 -10 33 -10 25 -1 29 -3 15 -10 -11 -7 -26 -7
-43 0 -14 5 -38 9 -53 9 -17 -1 -21 -3 -9 -6 9 -2 17 -8 17 -12 0 -9 -100 -2
-115 8 -5 4 -44 4 -85 1 -41 -4 -69 -7 -62 -8 20 -3 14 -22 -8 -22 -11 0 -20
4 -20 9 0 17 -55 5 -58 -13 -3 -15 -11 -16 -44 -11 -35 6 -40 5 -35 -9 4 -10
1 -16 -9 -16 -11 0 -13 -6 -9 -20 6 -20 -9 -28 -20 -10 -3 5 -11 7 -18 5 -7
-2 -25 -6 -42 -9 -22 -5 -26 -4 -15 4 13 9 13 11 0 20 -8 5 -24 10 -35 10 -19
-1 -19 -1 -2 -11 16 -10 14 -13 -24 -32 -30 -15 -44 -17 -47 -9 -4 14 -38 16
-46 3 -4 -5 -26 -19 -51 -31 -35 -17 -45 -27 -45 -46 0 -27 -15 -32 -24 -8
-10 26 -28 4 -21 -26 5 -23 2 -30 -14 -35 -28 -9 -28 -39 -1 -32 11 3 20 1 20
-4 0 -24 104 1 131 32 9 10 19 16 21 13 3 -2 27 4 54 15 27 11 110 39 184 62
131 42 140 44 300 49 135 5 160 8 140 17 l-25 12 30 2 c17 1 33 1 36 1 3 -1
29 -4 57 -8 68 -9 68 8 0 26 -29 8 -56 14 -60 15 -4 0 -12 5 -19 12 -17 17 22
26 57 12 43 -16 104 -22 104 -9 0 8 6 8 20 0 11 -6 25 -8 30 -5 6 3 10 -3 10
-14 0 -14 -6 -21 -20 -21 -11 0 -20 -4 -20 -10 0 -5 7 -10 15 -10 9 0 12 -6 9
-15 -4 -8 -1 -15 6 -15 6 0 8 -4 5 -10 -5 -9 -2 -10 20 -10 3 0 21 -7 41 -15
20 -8 40 -12 45 -9 5 3 9 0 9 -5 0 -6 7 -11 16 -11 9 0 27 -9 41 -20 14 -11
36 -20 49 -20 13 0 29 -9 36 -20 13 -21 85 -47 97 -34 3 4 0 9 -6 11 -7 3 -13
9 -13 15 0 6 7 8 15 4 70 -26 -126 124 -225 174 -36 18 -77 41 -92 52 -16 11
-28 15 -28 9 0 -18 -22 -13 -47 11 -39 37 -153 65 -153 38z"/>
<path d="M3183 9889 c-28 -4 -75 -18 -105 -29 -57 -21 -138 -82 -138 -104 0
-16 -42 -56 -58 -56 -7 0 -12 -4 -12 -10 0 -5 -6 -10 -14 -10 -17 0 -26 -85
-11 -103 17 -18 37 -86 30 -97 -9 -14 4 -52 16 -45 5 4 9 2 9 -3 0 -22 113
-31 193 -16 25 5 27 3 27 -24 0 -25 3 -29 20 -25 11 3 20 10 20 17 0 6 4 4 10
-4 7 -12 13 -12 33 -1 21 11 28 11 50 -3 23 -16 25 -16 30 6 6 22 7 22 21 3
10 -13 15 -15 16 -7 0 10 8 12 29 7 17 -3 32 -2 36 4 3 6 15 11 26 11 15 0 19
7 19 32 0 17 3 29 6 26 3 -4 20 -2 37 3 24 7 33 5 40 -6 11 -21 27 -19 27 4 0
13 7 19 23 20 42 1 72 8 94 19 27 15 53 16 53 2 0 -16 14 -12 38 10 13 12 28
17 38 13 11 -4 15 -2 11 4 -6 9 11 23 33 27 3 1 10 4 15 7 6 4 22 9 38 13 17
4 27 13 27 24 0 15 6 18 30 14 21 -3 32 0 36 12 3 9 15 16 25 16 23 0 25 16 3
24 -8 3 -13 10 -10 14 3 5 -14 14 -37 21 -66 19 -115 42 -121 58 -5 11 -1 13
17 8 12 -4 26 -11 31 -16 17 -16 49 -11 42 7 -3 9 -6 19 -6 22 0 4 -5 0 -10
-8 -5 -8 -10 -10 -10 -4 0 21 -223 110 -297 119 -72 10 -373 13 -420 4z m330
-19 c40 -6 92 -19 117 -30 25 -10 53 -21 63 -24 23 -7 22 -33 -2 -45 -10 -6
-91 -10 -182 -10 -226 0 -294 -11 -400 -65 -64 -33 -90 -41 -98 -33 -8 8 -11
4 -11 -15 0 -27 -20 -51 -20 -26 -1 9 -5 8 -13 -4 -12 -15 -14 -15 -25 2 -9
15 -8 22 3 34 8 8 15 21 15 29 0 45 82 143 140 166 19 7 55 17 80 21 69 11
253 11 333 0z m-253 -246 c0 -52 5 -74 26 -110 33 -57 31 -58 -141 -51 -104 3
-140 1 -161 -10 -15 -7 -35 -12 -43 -10 -10 2 -1 11 24 24 24 13 45 34 53 52
8 17 17 29 22 26 4 -3 13 9 20 25 15 36 62 73 115 90 22 7 47 16 55 21 27 15
30 10 30 -57z"/>
<path d="M2945 9339 c-20 -32 157 -96 293 -107 56 -4 108 -4 115 0 7 4 28 8
47 8 20 0 44 6 55 13 11 7 45 19 75 26 77 19 97 34 35 26 -27 -4 -66 -10 -85
-15 -105 -26 -147 -29 -250 -17 -91 11 -105 15 -103 30 0 12 -4 16 -13 13 -8
-3 -21 -9 -29 -12 -8 -3 -15 -2 -15 4 0 27 -111 55 -125 31z"/>
<path d="M2390 8488 c0 -5 -9 -8 -20 -8 -11 0 -20 -4 -20 -10 0 -5 3 -10 8
-10 4 0 6 -18 4 -40 -3 -24 0 -40 6 -40 7 0 9 -14 5 -35 -5 -32 -4 -35 20 -35
18 0 26 7 31 23 10 42 44 74 83 82 21 3 47 15 58 25 11 11 39 20 63 22 23 2
43 8 45 13 1 6 -53 12 -141 15 -78 3 -142 2 -142 -2z"/>
<path d="M2107 8000 c7 -54 40 -108 83 -135 22 -14 44 -25 49 -25 5 0 14 -7
21 -14 13 -16 43 -27 132 -46 32 -7 55 -16 53 -20 -4 -7 12 -6 93 4 31 4 41 2
36 -6 -5 -8 -2 -9 10 -5 10 4 20 7 22 7 3 0 2 5 -2 11 -4 6 1 10 12 8 11 -1
38 3 62 10 61 17 44 35 -29 28 -59 -5 -84 4 -51 19 19 8 28 11 41 13 4 0 25
15 46 31 21 17 46 30 56 30 10 0 25 7 34 16 26 26 31 6 5 -21 -13 -14 -22 -25
-19 -26 2 0 17 -2 33 -4 68 -9 74 -26 15 -44 -23 -7 -39 -14 -36 -17 4 -5 127
12 164 22 16 4 24 1 28 -10 17 -53 16 -51 25 -36 6 9 5 19 0 24 -15 15 -12 36
4 36 9 0 17 -15 21 -40 6 -37 25 -66 25 -39 0 6 8 9 19 6 11 -3 28 1 38 8 17
12 25 15 41 15 4 0 27 18 52 40 39 34 46 37 60 25 10 -9 20 -11 30 -4 13 8 13
10 1 18 -8 5 -15 20 -17 33 -1 12 -3 26 -3 31 -1 4 -18 7 -38 7 -21 0 -76 1
-123 4 -265 13 -499 17 -535 8 -22 -6 -66 -20 -99 -32 -56 -20 -60 -20 -100
-5 -58 24 -144 23 -181 -1 -16 -10 -26 -14 -22 -8 4 7 1 14 -7 17 -8 3 -17 19
-21 36 -4 17 -10 31 -15 31 -5 0 -11 8 -13 18 -2 9 -2 1 0 -18z"/>
<path d="M2378 6792 c-14 -15 -29 -37 -32 -49 -4 -11 -13 -26 -21 -33 -8 -6
-11 -18 -8 -26 4 -11 9 -12 19 -3 11 9 14 8 14 -5 0 -18 11 -23 105 -52 33
-10 71 -26 85 -36 24 -18 28 -18 59 -2 49 25 103 35 118 22 9 -7 13 -7 13 1 0
7 6 11 13 10 26 -3 47 1 47 11 0 6 -26 10 -57 10 -121 0 -254 66 -311 152
l-18 28 -26 -28z"/>
<path d="M1 5785 c-1 -208 3 -283 14 -325 18 -65 18 -73 5 -65 -12 8 -12 21
-16 -227 l-3 -208 22 -1 22 0 -22 -11 c-21 -10 -23 -18 -23 -100 0 -64 3 -88
13 -88 8 0 7 -4 -3 -10 -13 -9 -13 -11 0 -20 8 -5 24 -7 35 -4 16 4 17 3 5 -5
-8 -6 -23 -11 -33 -11 -15 0 -17 -10 -15 -77 1 -63 5 -81 20 -91 18 -13 25
-42 10 -42 -4 0 -13 5 -20 12 -14 14 -15 12 -3 -29 6 -20 6 -35 0 -38 -13 -9
-11 -69 4 -84 9 -11 9 -14 -1 -18 -6 -3 -12 -16 -12 -29 0 -14 4 -22 10 -19 5
3 10 -1 10 -9 0 -8 -4 -17 -9 -20 -5 -3 -9 -193 -10 -430 -2 -424 -2 -425 19
-428 l21 -3 -20 -22 c-20 -21 -20 -32 -21 -566 0 -450 2 -546 13 -550 8 -3 39
-8 70 -12 31 -4 58 -13 60 -20 3 -7 26 -17 51 -24 25 -6 46 -15 46 -20 0 -4
18 -13 40 -20 22 -6 40 -16 40 -21 0 -6 11 -10 24 -10 14 0 27 -4 30 -8 3 -5
20 -6 38 -4 30 5 32 3 19 -12 -16 -20 -15 -22 21 -31 21 -5 29 -3 34 9 3 9 15
16 25 16 28 0 23 17 -8 25 -19 4 -23 9 -14 15 7 4 12 13 9 21 -5 16 -128 52
-125 36 1 -6 -6 -13 -16 -15 -15 -3 -18 0 -13 15 4 12 -1 23 -17 32 -19 12
-20 12 -10 0 7 -9 9 -20 3 -29 -7 -12 -13 -11 -33 9 -16 14 -27 19 -32 12 -3
-6 -11 -9 -16 -5 -5 3 -7 9 -5 12 2 4 -14 6 -37 4 l-42 -3 28 16 c19 11 39 14
59 10 17 -4 33 -3 37 2 3 5 33 14 65 21 l59 12 43 -35 c23 -19 62 -40 87 -47
43 -11 44 -13 34 -36 -9 -18 -8 -25 4 -33 12 -7 12 -10 0 -18 -8 -5 -11 -17
-7 -29 8 -25 -18 -37 -35 -16 -11 14 -14 13 -22 -1 -5 -9 -7 -18 -5 -21 3 -2
35 -6 71 -8 82 -5 99 6 87 58 -4 19 -5 37 -2 40 3 4 0 6 -6 6 -7 0 -12 6 -12
13 1 13 -61 139 -72 147 -11 9 -29 61 -23 70 3 4 -1 10 -9 13 -13 5 -15 14
-18 95 -2 54 39 122 89 151 10 5 16 12 13 14 -10 10 -112 -76 -157 -133 -71
-87 -97 -79 -47 14 15 29 22 51 16 55 -5 3 -20 27 -32 53 -12 26 -28 52 -36
59 -8 6 -14 18 -14 26 0 17 -30 65 -47 76 -8 5 -11 12 -8 18 4 5 0 12 -8 15
-9 3 -13 13 -10 25 3 10 1 19 -3 19 -5 0 -15 15 -23 33 -77 179 -116 253 -134
249 -24 -4 -31 19 -8 25 22 5 28 27 12 38 -6 3 -9 13 -9 23 0 9 -11 50 -25 91
-15 41 -24 78 -21 83 3 5 1 14 -4 21 -19 23 -35 132 -35 232 0 121 5 175 14
175 4 0 10 11 13 25 4 14 10 25 15 25 5 0 3 17 -5 39 -28 83 -27 244 2 374 5
21 3 27 -10 27 -9 0 -16 4 -16 10 0 5 7 7 15 4 19 -8 27 15 55 147 12 57 28
126 36 152 9 27 18 97 20 155 3 59 9 140 15 180 14 116 12 142 -40 409 -51
255 -71 344 -97 421 -8 23 -14 62 -14 85 -1 23 -7 65 -15 92 -13 46 -14 28
-14 -220z"/>
<path d="M534 5833 c-8 -8 -14 -19 -14 -24 0 -5 -12 -22 -27 -37 -65 -66 -90
-105 -152 -244 -34 -76 -34 -78 -55 -173 -34 -154 -10 -408 54 -560 5 -11 14
-35 22 -52 7 -18 16 -33 20 -33 5 0 8 -11 8 -24 0 -13 7 -29 15 -36 9 -7 14
-15 11 -17 -2 -3 12 -20 32 -38 31 -28 33 -33 15 -28 -14 3 -23 1 -23 -6 0 -6
7 -11 15 -11 7 0 18 -7 23 -16 16 -29 19 -2 11 106 -5 58 -9 228 -10 378 -1
149 -4 274 -8 276 -4 3 -6 19 -5 35 3 52 -52 30 -74 -29 l-10 -25 -7 30 c-4
17 -14 37 -21 46 -25 28 11 113 78 185 45 48 53 61 36 56 -22 -5 -22 -5 -5 12
9 10 17 23 17 30 0 20 28 71 50 91 11 10 20 24 20 32 0 8 11 29 25 47 l26 34
-26 5 c-15 2 -32 -2 -41 -10z"/>
<path d="M198 3955 c-2 -3 -23 -6 -46 -7 -81 -3 -36 -58 47 -58 29 0 84 -5
122 -11 39 -6 73 -8 77 -5 3 4 -8 20 -25 36 -21 20 -33 26 -35 18 -4 -10 -10
-10 -29 -2 -68 32 -99 40 -111 29z"/>
<path d="M791 2125 c-40 -29 -50 -60 -21 -68 12 -3 20 -14 20 -26 0 -16 -6
-21 -29 -21 -23 0 -32 -7 -45 -34 -27 -57 -17 -99 14 -61 7 8 16 15 21 15 12
0 39 -55 39 -81 0 -24 47 -99 62 -99 4 0 -1 18 -12 41 -23 44 -52 177 -43 193
4 5 12 34 19 65 7 31 16 66 19 79 9 28 -1 27 -44 -3z"/>
</g>
</svg>
